<svg width="82" height="28" viewBox="0 0 82 28" fill="none" xmlns="http://www.w3.org/2000/svg">
<path d="M49.3818 16.5226C48.5623 16.5226 47.8118 16.3249 47.1305 15.9296C46.4583 15.5342 45.9242 15.0056 45.5283 14.3436C45.1324 13.6725 44.9344 12.937 44.9344 12.1371C44.9344 11.3281 45.1324 10.5926 45.5283 9.93064C45.9242 9.26869 46.4583 8.74005 47.1305 8.34472C47.8118 7.94939 48.5623 7.75172 49.3818 7.75172C49.9619 7.75172 50.5097 7.84825 51.0254 8.04132C51.541 8.23439 51.9968 8.5148 52.3927 8.88255L51.8126 11.1718C51.5824 10.7765 51.2648 10.4363 50.8596 10.1513C50.4545 9.85709 49.9849 9.70999 49.4508 9.70999C48.9904 9.70999 48.5761 9.82031 48.2078 10.041C47.8487 10.2616 47.5632 10.5558 47.3514 10.9236C47.1397 11.2821 47.0338 11.6866 47.0338 12.1371C47.0338 12.5784 47.1397 12.983 47.3514 13.3507C47.5632 13.7185 47.8487 14.0127 48.2078 14.2333C48.5761 14.454 48.9904 14.5643 49.4508 14.5643C49.9849 14.5643 50.4545 14.4218 50.8596 14.1368C51.2648 13.8426 51.5824 13.4978 51.8126 13.1025L52.3927 15.3917C51.9968 15.7595 51.541 16.0399 51.0254 16.2329C50.5097 16.426 49.9619 16.5226 49.3818 16.5226Z" fill="white"/>
<path d="M58.1572 16.5226C57.3377 16.5226 56.5873 16.3249 55.9059 15.9296C55.2337 15.5342 54.6997 15.0056 54.3038 14.3436C53.9078 13.6817 53.7099 12.9462 53.7099 12.1371C53.7099 11.3281 53.9078 10.5926 54.3038 9.93064C54.6997 9.26869 55.2337 8.74005 55.9059 8.34472C56.5873 7.94939 57.3331 7.75172 58.1434 7.75172C58.9721 7.75172 59.7226 7.94939 60.3947 8.34472C61.0669 8.74005 61.6009 9.26869 61.9969 9.93064C62.402 10.5834 62.6046 11.3189 62.6046 12.1371C62.6046 12.937 62.402 13.6725 61.9969 14.3436C61.6009 15.0056 61.0669 15.5342 60.3947 15.9296C59.7226 16.3249 58.9767 16.5226 58.1572 16.5226ZM58.1434 14.5643C58.5946 14.5643 58.9997 14.454 59.3588 14.2333C59.7179 14.0127 60.0034 13.7185 60.2152 13.3507C60.4269 12.983 60.5328 12.5784 60.5328 12.1371C60.5328 11.6866 60.4269 11.2821 60.2152 10.9236C60.0034 10.5558 59.7179 10.2616 59.3588 10.041C58.9997 9.82031 58.5946 9.70999 58.1434 9.70999C57.7014 9.70999 57.3009 9.82031 56.9418 10.041C56.5827 10.2616 56.2972 10.5558 56.0855 10.9236C55.8737 11.2821 55.7678 11.6866 55.7678 12.1371C55.7678 12.5784 55.8737 12.983 56.0855 13.3507C56.2972 13.7185 56.5827 14.0127 56.9418 14.2333C57.3009 14.454 57.7014 14.5643 58.1434 14.5643Z" fill="white"/>
<path d="M78.0913 16.5226C77.1797 16.5226 76.3694 16.3295 75.6604 15.9433C74.9606 15.5572 74.4128 15.0286 74.0168 14.3574C73.6301 13.6771 73.4367 12.9094 73.4367 12.0544C73.4367 11.2361 73.6255 10.5052 74.003 9.86168C74.3897 9.20893 74.91 8.69408 75.5637 8.31713C76.2175 7.94019 76.9403 7.75172 77.7322 7.75172C78.5425 7.75172 79.2653 7.94019 79.9006 8.31713C80.5452 8.68488 81.0562 9.18594 81.4337 9.82031C81.8112 10.4547 82 11.1764 82 11.9854V12.6637H76.8482C76.618 12.6637 76.4077 12.6637 76.1064 12.6637C75.8051 12.6637 75.8051 12.6637 75.5037 12.6637C75.6142 13.2613 75.909 13.7231 76.3786 14.1092C76.8482 14.4953 77.4375 14.6884 78.1465 14.6884C78.6714 14.6884 79.1456 14.5781 79.5691 14.3574C79.9927 14.1368 80.3426 13.861 80.6188 13.53L81.116 15.5572C80.7017 15.879 80.2367 16.118 79.7211 16.2743C79.2054 16.4398 78.6622 16.5226 78.0913 16.5226ZM75.455 11.2959C75.9457 11.2959 76.3655 11.2959 76.8259 11.2959H78.6076C78.8562 11.2959 79.1387 11.2959 79.3527 11.2959C79.5813 11.2959 79.7791 11.2959 79.9745 11.2959C79.8363 10.7627 79.5599 10.3076 79.1548 9.9858C78.7588 9.66402 78.28 9.50313 77.7184 9.50313C77.1659 9.50313 76.6871 9.66861 76.282 9.99959C75.8768 10.3306 75.6023 10.7627 75.455 11.2959Z" fill="white"/>
<path d="M49.4151 28C48.5956 28 47.8452 27.8023 47.1638 27.407C46.4916 27.0117 45.9576 26.483 45.5616 25.8211C45.1657 25.1499 44.9677 24.4145 44.9677 23.6146C44.9677 22.8055 45.1657 22.07 45.5616 21.4081C45.9576 20.7461 46.4916 20.2175 47.1638 19.8222C47.8452 19.4268 48.5956 19.2292 49.4151 19.2292C49.9952 19.2292 50.5431 19.3257 51.0587 19.5188C51.5743 19.7118 52.0301 19.9923 52.4261 20.36L51.846 22.6492C51.6158 22.2539 51.2981 21.9137 50.893 21.6287C50.4878 21.3345 50.0182 21.1874 49.4842 21.1874C49.0238 21.1874 48.6094 21.2978 48.2411 21.5184C47.882 21.7391 47.5966 22.0333 47.3848 22.401C47.173 22.7596 47.0671 23.1641 47.0671 23.6146C47.0671 24.0559 47.173 24.4604 47.3848 24.8282C47.5966 25.1959 47.882 25.4901 48.2411 25.7108C48.6094 25.9314 49.0238 26.0417 49.4842 26.0417C50.0182 26.0417 50.4878 25.8992 50.893 25.6142C51.2981 25.32 51.6158 24.9753 51.846 24.5799L52.4261 26.8692C52.0301 27.2369 51.5743 27.5173 51.0587 27.7104C50.5431 27.9035 49.9952 28 49.4151 28Z" fill="white"/>
<path d="M57.6608 27.848C56.9057 27.848 56.2151 27.6549 55.589 27.2688C54.9629 26.8734 54.461 26.3494 54.0835 25.6966C53.7152 25.0347 53.5311 24.3084 53.5311 23.5177C53.5311 22.7271 53.7152 22.0054 54.0835 21.3526C54.461 20.6907 54.9629 20.1666 55.589 19.7805C56.2151 19.3851 56.9057 19.1875 57.6608 19.1875C58.204 19.1875 58.7058 19.284 59.1662 19.4771C59.6266 19.6702 60.018 19.9414 60.3402 20.2907V19.3805L62.4258 19.3668V27.6411L60.3402 27.6549V26.7447C60.018 27.0849 59.6266 27.3561 59.1662 27.5584C58.7058 27.7514 58.204 27.848 57.6608 27.848ZM57.9232 25.9311C58.3652 25.9311 58.7611 25.8208 59.111 25.6001C59.4701 25.3795 59.7555 25.0899 59.9673 24.7313C60.1791 24.3636 60.285 23.959 60.285 23.5177C60.285 23.0764 60.1791 22.6765 59.9673 22.3179C59.7555 21.9502 59.4701 21.656 59.111 21.4353C58.7611 21.2147 58.3698 21.1044 57.937 21.1044C57.495 21.1044 57.0945 21.2147 56.7354 21.4353C56.3855 21.656 56.1046 21.9502 55.8929 22.3179C55.6811 22.6765 55.5752 23.0764 55.5752 23.5177C55.5752 23.959 55.6811 24.3636 55.8929 24.7313C56.1046 25.0899 56.3855 25.3795 56.7354 25.6001C57.0945 25.8208 57.4904 25.9311 57.9232 25.9311Z" fill="white"/>
<path d="M68.5193 27.9817L64.0744 19.4774H66.4914L67.8864 22.3734C68.0153 22.6217 68.135 22.8699 68.2455 23.1181C68.356 23.3664 68.4665 23.656 68.577 23.9869C68.6875 23.656 68.798 23.3664 68.9084 23.1181C69.0189 22.8699 69.1386 22.6217 69.2676 22.3734L70.6625 19.4774H72.9691L68.5193 27.9817Z" fill="white"/>
<path d="M78.0913 16.5226C77.1797 16.5226 76.3694 16.3295 75.6604 15.9433C74.9606 15.5572 74.4128 15.0286 74.0168 14.3574C73.6301 13.6771 73.4367 12.9094 73.4367 12.0544C73.4367 11.2361 73.6255 10.5052 74.003 9.86168C74.3897 9.20893 74.91 8.69408 75.5637 8.31713C76.2175 7.94019 76.9403 7.75172 77.7322 7.75172C78.5425 7.75172 79.2653 7.94019 79.9006 8.31713C80.5452 8.68488 81.0562 9.18594 81.4337 9.82031C81.8112 10.4547 82 11.1764 82 11.9854V12.6637H76.8482C76.618 12.6637 76.4077 12.6637 76.1064 12.6637C75.8051 12.6637 75.8051 12.6637 75.5037 12.6637C75.6142 13.2613 75.909 13.7231 76.3786 14.1092C76.8482 14.4953 77.4375 14.6884 78.1465 14.6884C78.6714 14.6884 79.1456 14.5781 79.5691 14.3574C79.9927 14.1368 80.3426 13.861 80.6188 13.53L81.116 15.5572C80.7017 15.879 80.2367 16.118 79.7211 16.2743C79.2054 16.4398 78.6622 16.5226 78.0913 16.5226ZM75.455 11.2959C75.9457 11.2959 76.3655 11.2959 76.8259 11.2959H78.6076C78.8562 11.2959 79.1387 11.2959 79.3527 11.2959C79.5813 11.2959 79.7791 11.2959 79.9745 11.2959C79.8363 10.7627 79.5599 10.3076 79.1548 9.9858C78.7588 9.66402 78.28 9.50313 77.7184 9.50313C77.1659 9.50313 76.6871 9.66861 76.282 9.99959C75.8768 10.3306 75.6023 10.7627 75.455 11.2959Z" fill="white"/>
<path d="M78.0913 27.9817C77.1797 27.9817 76.3694 27.7887 75.6604 27.4025C74.9606 27.0164 74.4128 26.4878 74.0168 25.8166C73.6301 25.1363 73.4367 24.3686 73.4367 23.5136C73.4367 22.6953 73.6255 21.9644 74.003 21.3209C74.3897 20.6681 74.91 20.1533 75.5637 19.7763C76.2175 19.3994 76.9403 19.2109 77.7322 19.2109C78.5425 19.2109 79.2653 19.3994 79.9006 19.7763C80.5452 20.1441 81.0562 20.6451 81.4337 21.2795C81.8112 21.9139 82 22.6356 82 23.4446V24.1229H76.8482C76.618 24.1229 76.4077 24.1229 76.1064 24.1229C75.8051 24.1229 75.805 24.1229 75.5037 24.1229C75.6142 24.7205 75.909 25.1822 76.3786 25.5684C76.8482 25.9545 77.4375 26.1476 78.1465 26.1476C78.6714 26.1476 79.1456 26.0373 79.5691 25.8166C79.9927 25.596 80.3426 25.3201 80.6188 24.9892L81.116 27.0164C80.7017 27.3382 80.2367 27.5772 79.7211 27.7335C79.2054 27.899 78.6622 27.9817 78.0913 27.9817ZM75.455 22.7551C75.9457 22.7551 76.3655 22.7551 76.8259 22.7551H78.6076C78.8562 22.7551 79.1387 22.7551 79.3527 22.7551C79.5813 22.7551 79.7791 22.7551 79.9745 22.7551C79.8363 22.2219 79.5599 21.7668 79.1548 21.445C78.7588 21.1232 78.28 20.9623 77.7184 20.9623C77.1659 20.9623 76.6871 21.1278 76.2819 21.4588C75.8768 21.7898 75.6023 22.2219 75.455 22.7551Z" fill="white"/>
<path d="M78.0913 27.9817C77.1797 27.9817 76.3694 27.7887 75.6604 27.4025C74.9606 27.0164 74.4128 26.4878 74.0168 25.8166C73.6301 25.1363 73.4367 24.3686 73.4367 23.5136C73.4367 22.6953 73.6255 21.9644 74.003 21.3209C74.3897 20.6681 74.91 20.1533 75.5637 19.7763C76.2175 19.3994 76.9403 19.2109 77.7322 19.2109C78.5425 19.2109 79.2653 19.3994 79.9006 19.7763C80.5452 20.1441 81.0562 20.6451 81.4337 21.2795C81.8112 21.9139 82 22.6356 82 23.4446V24.1229H76.8482C76.618 24.1229 76.4077 24.1229 76.1064 24.1229C75.8051 24.1229 75.805 24.1229 75.5037 24.1229C75.6142 24.7205 75.909 25.1822 76.3786 25.5684C76.8482 25.9545 77.4375 26.1476 78.1465 26.1476C78.6714 26.1476 79.1456 26.0373 79.5691 25.8166C79.9927 25.596 80.3426 25.3201 80.6188 24.9892L81.116 27.0164C80.7017 27.3382 80.2367 27.5772 79.7211 27.7335C79.2054 27.899 78.6622 27.9817 78.0913 27.9817ZM75.455 22.7551C75.9457 22.7551 76.3655 22.7551 76.8259 22.7551H78.6076C78.8562 22.7551 79.1387 22.7551 79.3527 22.7551C79.5813 22.7551 79.7791 22.7551 79.9745 22.7551C79.8363 22.2219 79.5599 21.7668 79.1548 21.445C78.7588 21.1232 78.28 20.9623 77.7184 20.9623C77.1659 20.9623 76.6871 21.1278 76.2819 21.4588C75.8768 21.7898 75.6023 22.2219 75.455 22.7551Z" fill="white"/>
<path d="M64.257 16.5226V7.75172H67.2918C68.0059 7.75172 68.6538 7.86093 69.2357 8.07935C69.8241 8.29777 70.3299 8.60044 70.7531 8.98736C71.1828 9.36803 71.5134 9.81424 71.7449 10.326C71.9763 10.8377 72.092 11.613 72.092 12.1934C72.092 12.7738 71.9763 13.3198 71.7449 13.8315C71.5134 14.3433 71.1828 14.887 70.7531 15.2739C70.3299 15.6546 69.8241 15.9765 69.2357 16.1949C68.6538 16.4133 68.0059 16.5226 67.2918 16.5226H64.257ZM66.1085 14.7859C66.611 14.7859 68.1358 14.8094 68.5193 14.6721C68.9028 14.5286 69.1663 14.3464 69.4241 14.103C69.6886 13.8534 69.8869 13.5663 70.0192 13.2418C70.158 12.9173 70.2242 12.5116 70.2242 12.1371C70.2242 11.7627 70.158 11.2402 70.0192 10.9157C69.8869 10.585 69.6886 10.2979 69.4241 10.0545C69.1663 9.80488 68.9028 9.69433 68.5193 9.55704C68.1358 9.41974 66.611 9.35185 66.1085 9.35185V14.7859Z" fill="white"/>
<path d="M49.3818 16.5226C48.5623 16.5226 47.8118 16.3249 47.1305 15.9296C46.4583 15.5342 45.9242 15.0056 45.5283 14.3436C45.1324 13.6725 44.9344 12.937 44.9344 12.1371C44.9344 11.3281 45.1324 10.5926 45.5283 9.93064C45.9242 9.26869 46.4583 8.74005 47.1305 8.34472C47.8118 7.94939 48.5623 7.75172 49.3818 7.75172C49.9619 7.75172 50.5097 7.84825 51.0254 8.04132C51.541 8.23439 51.9968 8.5148 52.3927 8.88255L51.8126 11.1718C51.5824 10.7765 51.2648 10.4363 50.8596 10.1513C50.4545 9.85709 49.9849 9.70999 49.4508 9.70999C48.9904 9.70999 48.5761 9.82031 48.2078 10.041C47.8487 10.2616 47.5632 10.5558 47.3514 10.9236C47.1397 11.2821 47.0338 11.6866 47.0338 12.1371C47.0338 12.5784 47.1397 12.983 47.3514 13.3507C47.5632 13.7185 47.8487 14.0127 48.2078 14.2333C48.5761 14.454 48.9904 14.5643 49.4508 14.5643C49.9849 14.5643 50.4545 14.4218 50.8596 14.1368C51.2648 13.8426 51.5824 13.4978 51.8126 13.1025L52.3927 15.3917C51.9968 15.7595 51.541 16.0399 51.0254 16.2329C50.5097 16.426 49.9619 16.5226 49.3818 16.5226Z" fill="white"/>
<path d="M58.1572 16.5226C57.3377 16.5226 56.5873 16.3249 55.9059 15.9296C55.2337 15.5342 54.6997 15.0056 54.3038 14.3436C53.9078 13.6817 53.7099 12.9462 53.7099 12.1371C53.7099 11.3281 53.9078 10.5926 54.3038 9.93064C54.6997 9.26869 55.2337 8.74005 55.9059 8.34472C56.5873 7.94939 57.3331 7.75172 58.1434 7.75172C58.9721 7.75172 59.7226 7.94939 60.3947 8.34472C61.0669 8.74005 61.6009 9.26869 61.9969 9.93064C62.402 10.5834 62.6046 11.3189 62.6046 12.1371C62.6046 12.937 62.402 13.6725 61.9969 14.3436C61.6009 15.0056 61.0669 15.5342 60.3947 15.9296C59.7226 16.3249 58.9767 16.5226 58.1572 16.5226ZM58.1434 14.5643C58.5946 14.5643 58.9997 14.454 59.3588 14.2333C59.7179 14.0127 60.0034 13.7185 60.2152 13.3507C60.4269 12.983 60.5328 12.5784 60.5328 12.1371C60.5328 11.6866 60.4269 11.2821 60.2152 10.9236C60.0034 10.5558 59.7179 10.2616 59.3588 10.041C58.9997 9.82031 58.5946 9.70999 58.1434 9.70999C57.7014 9.70999 57.3009 9.82031 56.9418 10.041C56.5827 10.2616 56.2972 10.5558 56.0855 10.9236C55.8737 11.2821 55.7678 11.6866 55.7678 12.1371C55.7678 12.5784 55.8737 12.983 56.0855 13.3507C56.2972 13.7185 56.5827 14.0127 56.9418 14.2333C57.3009 14.454 57.7014 14.5643 58.1434 14.5643Z" fill="white"/>
<path d="M64.257 16.5226V7.75172H67.2918C68.0059 7.75172 68.6538 7.86093 69.2357 8.07935C69.8241 8.29777 70.3299 8.60044 70.7531 8.98736C71.1828 9.36803 71.5134 9.81424 71.7449 10.326C71.9763 10.8377 72.092 11.613 72.092 12.1934C72.092 12.7738 71.9763 13.3198 71.7449 13.8315C71.5134 14.3433 71.1828 14.887 70.7531 15.2739C70.3299 15.6546 69.8241 15.9765 69.2357 16.1949C68.6538 16.4133 68.0059 16.5226 67.2918 16.5226H64.257ZM66.1085 14.7859C66.611 14.7859 68.1358 14.8094 68.5193 14.6721C68.9028 14.5286 69.1663 14.3464 69.4241 14.103C69.6886 13.8534 69.8869 13.5663 70.0192 13.2418C70.158 12.9173 70.2242 12.5116 70.2242 12.1371C70.2242 11.7627 70.158 11.2402 70.0192 10.9157C69.8869 10.585 69.6886 10.2979 69.4241 10.0545C69.1663 9.80488 68.9028 9.69433 68.5193 9.55704C68.1358 9.41974 66.611 9.35185 66.1085 9.35185V14.7859Z" fill="white"/>
<path d="M49.4151 28C48.5956 28 47.8452 27.8023 47.1638 27.407C46.4916 27.0117 45.9576 26.483 45.5616 25.8211C45.1657 25.1499 44.9677 24.4145 44.9677 23.6146C44.9677 22.8055 45.1657 22.07 45.5616 21.4081C45.9576 20.7461 46.4916 20.2175 47.1638 19.8222C47.8452 19.4268 48.5956 19.2292 49.4151 19.2292C49.9952 19.2292 50.5431 19.3257 51.0587 19.5188C51.5743 19.7118 52.0301 19.9923 52.4261 20.36L51.846 22.6492C51.6158 22.2539 51.2981 21.9137 50.893 21.6287C50.4878 21.3345 50.0182 21.1874 49.4842 21.1874C49.0238 21.1874 48.6094 21.2978 48.2411 21.5184C47.882 21.7391 47.5966 22.0333 47.3848 22.401C47.173 22.7596 47.0671 23.1641 47.0671 23.6146C47.0671 24.0559 47.173 24.4604 47.3848 24.8282C47.5966 25.1959 47.882 25.4901 48.2411 25.7108C48.6094 25.9314 49.0238 26.0417 49.4842 26.0417C50.0182 26.0417 50.4878 25.8992 50.893 25.6142C51.2981 25.32 51.6158 24.9753 51.846 24.5799L52.4261 26.8692C52.0301 27.2369 51.5743 27.5173 51.0587 27.7104C50.5431 27.9035 49.9952 28 49.4151 28Z" fill="white"/>
<path d="M57.6608 27.848C56.9057 27.848 56.2151 27.6549 55.589 27.2688C54.9629 26.8734 54.461 26.3494 54.0835 25.6966C53.7152 25.0347 53.5311 24.3084 53.5311 23.5177C53.5311 22.7271 53.7152 22.0054 54.0835 21.3526C54.461 20.6907 54.9629 20.1666 55.589 19.7805C56.2151 19.3851 56.9057 19.1875 57.6608 19.1875C58.204 19.1875 58.7058 19.284 59.1662 19.4771C59.6266 19.6702 60.018 19.9414 60.3402 20.2907V19.3805L62.4258 19.3668V27.6411L60.3402 27.6549V26.7447C60.018 27.0849 59.6266 27.3561 59.1662 27.5584C58.7058 27.7514 58.204 27.848 57.6608 27.848ZM57.9232 25.9311C58.3652 25.9311 58.7611 25.8208 59.111 25.6001C59.4701 25.3795 59.7555 25.0899 59.9673 24.7313C60.1791 24.3636 60.285 23.959 60.285 23.5177C60.285 23.0764 60.1791 22.6765 59.9673 22.3179C59.7555 21.9502 59.4701 21.656 59.111 21.4353C58.7611 21.2147 58.3698 21.1044 57.937 21.1044C57.495 21.1044 57.0945 21.2147 56.7354 21.4353C56.3855 21.656 56.1046 21.9502 55.8929 22.3179C55.6811 22.6765 55.5752 23.0764 55.5752 23.5177C55.5752 23.959 55.6811 24.3636 55.8929 24.7313C56.1046 25.0899 56.3855 25.3795 56.7354 25.6001C57.0945 25.8208 57.4904 25.9311 57.9232 25.9311Z" fill="white"/>
<path d="M68.5193 27.9817L64.0744 19.4774H66.4914L67.8864 22.3734C68.0153 22.6217 68.135 22.8699 68.2455 23.1181C68.356 23.3664 68.4665 23.656 68.577 23.9869C68.6875 23.656 68.798 23.3664 68.9084 23.1181C69.0189 22.8699 69.1386 22.6217 69.2676 22.3734L70.6625 19.4774H72.9691L68.5193 27.9817Z" fill="white"/>
<path d="M30.77 27.6793H38.513V20.8809L24.014 2.18521L15.5743 0V8.25522L30.77 27.6793Z" fill="#5F20FE"/>
<path d="M23.0871 27.9685L25.9137 24.4449L23.0277 20.7011H14.9022L11.7805 24.2246L14.9022 27.9685H23.0871Z" fill="#5F20FE"/>
<path d="M6.79641 27.6793H0V21.3665L7.92915 12.14L14.9521 10.6832V18.2101L6.79641 27.6793Z" fill="#5F20FE"/>
</svg>
