<svg width="38" height="54" viewBox="0 0 38 54" fill="none" xmlns="http://www.w3.org/2000/svg">
<path d="M4.9646 42.5984C4.14705 42.5984 3.39839 42.4021 2.71863 42.0093C2.04806 41.6166 1.51527 41.0915 1.12027 40.4339C0.725275 39.7672 0.527778 39.0366 0.527778 38.242C0.527778 37.4383 0.725275 36.7077 1.12027 36.0501C1.51527 35.3925 2.04806 34.8674 2.71863 34.4747C3.39839 34.0819 4.14705 33.8856 4.9646 33.8856C5.54332 33.8856 6.08988 33.9815 6.6043 34.1733C7.11871 34.3651 7.57342 34.6436 7.96841 35.0089L7.3897 37.283C7.16005 36.8903 6.84313 36.5524 6.43895 36.2693C6.03477 35.977 5.56628 35.8309 5.03349 35.8309C4.5742 35.8309 4.16083 35.9405 3.79339 36.1597C3.43514 36.3789 3.15037 36.6711 2.93909 37.0364C2.72782 37.3926 2.62218 37.7945 2.62218 38.242C2.62218 38.6804 2.72782 39.0822 2.93909 39.4476C3.15037 39.8129 3.43514 40.1051 3.79339 40.3243C4.16083 40.5435 4.5742 40.6531 5.03349 40.6531C5.56628 40.6531 6.03477 40.5115 6.43895 40.2284C6.84313 39.9362 7.16005 39.5937 7.3897 39.201L7.96841 41.4751C7.57342 41.8404 7.11871 42.1189 6.6043 42.3107C6.08988 42.5025 5.54332 42.5984 4.9646 42.5984Z" fill="black"/>
<path d="M13.7193 42.5984C12.9017 42.5984 12.153 42.4021 11.4733 42.0093C10.8027 41.6166 10.2699 41.0915 9.87492 40.4339C9.47993 39.7763 9.28243 39.0457 9.28243 38.242C9.28243 37.4383 9.47993 36.7077 9.87492 36.0501C10.2699 35.3925 10.8027 34.8674 11.4733 34.4747C12.153 34.0819 12.8971 33.8856 13.7055 33.8856C14.5322 33.8856 15.2809 34.0819 15.9514 34.4747C16.622 34.8674 17.1548 35.3925 17.5498 36.0501C17.954 36.6985 18.1561 37.4292 18.1561 38.242C18.1561 39.0366 17.954 39.7672 17.5498 40.4339C17.1548 41.0915 16.622 41.6166 15.9514 42.0093C15.2809 42.4021 14.5368 42.5984 13.7193 42.5984ZM13.7055 40.6531C14.1556 40.6531 14.5598 40.5435 14.918 40.3243C15.2763 40.1051 15.561 39.8129 15.7723 39.4476C15.9836 39.0822 16.0892 38.6804 16.0892 38.242C16.0892 37.7945 15.9836 37.3926 15.7723 37.0364C15.561 36.6711 15.2763 36.3789 14.918 36.1597C14.5598 35.9405 14.1556 35.8309 13.7055 35.8309C13.2645 35.8309 12.865 35.9405 12.5067 36.1597C12.1484 36.3789 11.8637 36.6711 11.6524 37.0364C11.4411 37.3926 11.3355 37.7945 11.3355 38.242C11.3355 38.6804 11.4411 39.0822 11.6524 39.4476C11.8637 39.8129 12.1484 40.1051 12.5067 40.3243C12.865 40.5435 13.2645 40.6531 13.7055 40.6531Z" fill="black"/>
<path d="M33.606 42.5984C32.6966 42.5984 31.8883 42.4066 31.1809 42.023C30.4828 41.6395 29.9363 41.1143 29.5413 40.4476C29.1554 39.7718 28.9625 39.0092 28.9625 38.1598C28.9625 37.347 29.1508 36.6209 29.5275 35.9816C29.9133 35.3331 30.4323 34.8217 31.0845 34.4473C31.7367 34.0728 32.4578 33.8856 33.2478 33.8856C34.0562 33.8856 34.7773 34.0728 35.4111 34.4473C36.0541 34.8126 36.5639 35.3103 36.9406 35.9405C37.3172 36.5707 37.5055 37.2876 37.5055 38.0913V38.7651H32.3659C32.1363 38.7651 31.9265 38.7651 31.6259 38.7651C31.3252 38.7651 31.3252 38.7651 31.0246 38.7651C31.1348 39.3587 31.429 39.8174 31.8975 40.201C32.3659 40.5846 32.9538 40.7764 33.6612 40.7764C34.1848 40.7764 34.6578 40.6668 35.0804 40.4476C35.5029 40.2284 35.852 39.9544 36.1276 39.6256L36.6236 41.6395C36.2103 41.9591 35.7464 42.1966 35.232 42.3518C34.7176 42.5162 34.1756 42.5984 33.606 42.5984ZM30.976 37.4063C31.4655 37.4063 31.8843 37.4063 32.3436 37.4063H34.1211C34.3691 37.4063 34.651 37.4063 34.8644 37.4063C35.0925 37.4063 35.2899 37.4063 35.4848 37.4063C35.347 36.8766 35.0712 36.4245 34.667 36.1049C34.272 35.7852 33.7944 35.6254 33.234 35.6254C32.6829 35.6254 32.2052 35.7898 31.801 36.1186C31.3968 36.4474 31.123 36.8766 30.976 37.4063Z" fill="black"/>
<path d="M4.99787 54C4.18032 54 3.43166 53.8036 2.7519 53.4109C2.08132 53.0182 1.54854 52.4931 1.15354 51.8355C0.758543 51.1688 0.561046 50.4382 0.561046 49.6436C0.561046 48.8399 0.758543 48.1092 1.15354 47.4517C1.54854 46.7941 2.08132 46.269 2.7519 45.8762C3.43166 45.4835 4.18032 45.2872 4.99787 45.2872C5.57658 45.2872 6.12314 45.3831 6.63756 45.5748C7.15197 45.7666 7.60668 46.0452 8.00167 46.4105L7.42296 48.6846C7.19331 48.2919 6.87639 47.954 6.47221 47.6709C6.06803 47.3786 5.59955 47.2325 5.06676 47.2325C4.60746 47.2325 4.19409 47.3421 3.82665 47.5613C3.4684 47.7805 3.18364 48.0727 2.97236 48.438C2.76108 48.7942 2.65545 49.1961 2.65545 49.6436C2.65545 50.082 2.76108 50.4838 2.97236 50.8491C3.18364 51.2144 3.4684 51.5067 3.82665 51.7259C4.19409 51.9451 4.60746 52.0547 5.06676 52.0547C5.59955 52.0547 6.06803 51.9131 6.47221 51.63C6.87639 51.3377 7.19331 50.9953 7.42296 50.6025L8.00167 52.8766C7.60668 53.242 7.15197 53.5205 6.63756 53.7123C6.12314 53.9041 5.57658 54 4.99787 54Z" fill="black"/>
<path d="M13.224 53.849C12.4707 53.849 11.7818 53.6572 11.1571 53.2736C10.5325 52.8809 10.0318 52.3603 9.65522 51.7119C9.28778 51.0543 9.10407 50.3328 9.10407 49.5474C9.10407 48.7619 9.28778 48.045 9.65522 47.3965C10.0318 46.739 10.5325 46.2184 11.1571 45.8348C11.7818 45.4421 12.4707 45.2457 13.224 45.2457C13.7659 45.2457 14.2666 45.3416 14.7259 45.5334C15.1852 45.7252 15.5756 45.9946 15.8971 46.3417V45.4375L17.9777 45.4238V53.6435L15.8971 53.6572V52.753C15.5756 53.0909 15.1852 53.3604 14.7259 53.5613C14.2666 53.7531 13.7659 53.849 13.224 53.849ZM13.4858 51.9448C13.9267 51.9448 14.3217 51.8352 14.6708 51.616C15.029 51.3968 15.3138 51.1091 15.5251 50.7529C15.7363 50.3876 15.842 49.9857 15.842 49.5474C15.842 49.109 15.7363 48.7117 15.5251 48.3555C15.3138 47.9902 15.029 47.6979 14.6708 47.4787C14.3217 47.2596 13.9313 47.15 13.4995 47.15C13.0586 47.15 12.659 47.2596 12.3008 47.4787C11.9517 47.6979 11.6715 47.9902 11.4603 48.3555C11.249 48.7117 11.1433 49.109 11.1433 49.5474C11.1433 49.9857 11.249 50.3876 11.4603 50.7529C11.6715 51.1091 11.9517 51.3968 12.3008 51.616C12.659 51.8352 13.054 51.9448 13.4858 51.9448Z" fill="black"/>
<path d="M24.0568 53.9819L19.6224 45.5337H22.0337L23.4253 48.4106C23.554 48.6572 23.6734 48.9038 23.7836 49.1504C23.8938 49.397 24.0041 49.6847 24.1143 50.0135C24.2245 49.6847 24.3348 49.397 24.445 49.1504C24.5552 48.9038 24.6746 48.6572 24.8032 48.4106L26.1949 45.5337H28.496L24.0568 53.9819Z" fill="black"/>
<path d="M33.606 42.5984C32.6966 42.5984 31.8883 42.4066 31.1809 42.023C30.4828 41.6395 29.9363 41.1143 29.5413 40.4476C29.1554 39.7718 28.9625 39.0092 28.9625 38.1598C28.9625 37.347 29.1508 36.6209 29.5275 35.9816C29.9133 35.3331 30.4323 34.8217 31.0845 34.4473C31.7367 34.0728 32.4578 33.8856 33.2478 33.8856C34.0562 33.8856 34.7773 34.0728 35.4111 34.4473C36.0541 34.8126 36.5639 35.3103 36.9406 35.9405C37.3172 36.5707 37.5055 37.2876 37.5055 38.0913V38.7651H32.3659C32.1363 38.7651 31.9265 38.7651 31.6259 38.7651C31.3252 38.7651 31.3252 38.7651 31.0246 38.7651C31.1348 39.3587 31.429 39.8174 31.8975 40.201C32.3659 40.5846 32.9538 40.7764 33.6612 40.7764C34.1848 40.7764 34.6578 40.6668 35.0804 40.4476C35.5029 40.2284 35.852 39.9544 36.1276 39.6256L36.6236 41.6395C36.2103 41.9591 35.7464 42.1966 35.232 42.3518C34.7176 42.5162 34.1756 42.5984 33.606 42.5984ZM30.976 37.4063C31.4655 37.4063 31.8843 37.4063 32.3436 37.4063H34.1211C34.3691 37.4063 34.651 37.4063 34.8644 37.4063C35.0925 37.4063 35.2899 37.4063 35.4848 37.4063C35.347 36.8766 35.0712 36.4245 34.667 36.1049C34.272 35.7852 33.7944 35.6254 33.234 35.6254C32.6829 35.6254 32.2052 35.7898 31.801 36.1186C31.3968 36.4474 31.123 36.8766 30.976 37.4063Z" fill="black"/>
<path d="M33.606 53.9819C32.6966 53.9819 31.8883 53.7901 31.1809 53.4065C30.4828 53.0229 29.9362 52.4978 29.5412 51.831C29.1554 51.1552 28.9625 50.3926 28.9625 49.5433C28.9625 48.7304 29.1508 48.0043 29.5275 47.365C29.9133 46.7166 30.4323 46.2051 31.0845 45.8307C31.7367 45.4562 32.4578 45.269 33.2478 45.269C34.0562 45.269 34.7772 45.4562 35.4111 45.8307C36.0541 46.196 36.5639 46.6938 36.9406 47.3239C37.3172 47.9541 37.5055 48.671 37.5055 49.4747V50.1485H32.3659C32.1363 50.1485 31.9265 50.1485 31.6259 50.1485C31.3252 50.1485 31.3252 50.1485 31.0246 50.1485C31.1348 50.7421 31.429 51.2009 31.8974 51.5845C32.3659 51.968 32.9538 52.1598 33.6612 52.1598C34.1848 52.1598 34.6578 52.0502 35.0804 51.831C35.5029 51.6119 35.852 51.3379 36.1276 51.0091L36.6236 53.0229C36.2103 53.3425 35.7464 53.58 35.232 53.7353C34.7175 53.8997 34.1756 53.9819 33.606 53.9819ZM30.976 48.7898C31.4655 48.7898 31.8843 48.7898 32.3436 48.7898H34.1211C34.3691 48.7898 34.651 48.7898 34.8644 48.7898C35.0925 48.7898 35.2899 48.7898 35.4848 48.7898C35.347 48.2601 35.0712 47.808 34.667 47.4883C34.272 47.1687 33.7943 47.0088 33.234 47.0088C32.6828 47.0088 32.2052 47.1732 31.801 47.502C31.3968 47.8308 31.123 48.2601 30.976 48.7898Z" fill="black"/>
<path d="M33.606 53.9819C32.6966 53.9819 31.8883 53.7901 31.1809 53.4065C30.4828 53.0229 29.9362 52.4978 29.5412 51.831C29.1554 51.1552 28.9625 50.3926 28.9625 49.5433C28.9625 48.7304 29.1508 48.0043 29.5275 47.365C29.9133 46.7166 30.4323 46.2051 31.0845 45.8307C31.7367 45.4562 32.4578 45.269 33.2478 45.269C34.0562 45.269 34.7772 45.4562 35.4111 45.8307C36.0541 46.196 36.5639 46.6938 36.9406 47.3239C37.3172 47.9541 37.5055 48.671 37.5055 49.4747V50.1485H32.3659C32.1363 50.1485 31.9265 50.1485 31.6259 50.1485C31.3252 50.1485 31.3252 50.1485 31.0246 50.1485C31.1348 50.7421 31.429 51.2009 31.8974 51.5845C32.3659 51.968 32.9538 52.1598 33.6612 52.1598C34.1848 52.1598 34.6578 52.0502 35.0804 51.831C35.5029 51.6119 35.852 51.3379 36.1276 51.0091L36.6236 53.0229C36.2103 53.3425 35.7464 53.58 35.232 53.7353C34.7175 53.8997 34.1756 53.9819 33.606 53.9819ZM30.976 48.7898C31.4655 48.7898 31.8843 48.7898 32.3436 48.7898H34.1211C34.3691 48.7898 34.651 48.7898 34.8644 48.7898C35.0925 48.7898 35.2899 48.7898 35.4848 48.7898C35.347 48.2601 35.0712 47.808 34.667 47.4883C34.272 47.1687 33.7943 47.0088 33.234 47.0088C32.6828 47.0088 32.2052 47.1732 31.801 47.502C31.3968 47.8308 31.123 48.2601 30.976 48.7898Z" fill="black"/>
<path d="M19.8045 42.5984V33.8856H22.8322C23.5446 33.8856 24.191 33.9941 24.7714 34.211C25.3585 34.428 25.8631 34.7287 26.2852 35.113C26.714 35.4912 27.0438 35.9345 27.2747 36.4428C27.5055 36.9512 27.621 37.7213 27.621 38.2979C27.621 38.8744 27.5055 39.4169 27.2747 39.9252C27.0438 40.4336 26.714 40.9736 26.2852 41.358C25.8631 41.7362 25.3585 42.056 24.7714 42.273C24.191 42.4899 23.5446 42.5984 22.8322 42.5984H19.8045ZM21.6517 40.8733C22.153 40.8733 23.6742 40.8966 24.0568 40.7602C24.4393 40.6176 24.7022 40.4366 24.9594 40.1949C25.2233 39.9469 25.4212 39.6617 25.5531 39.3394C25.6916 39.017 25.7577 38.614 25.7577 38.242C25.7577 37.87 25.6916 37.351 25.5531 37.0286C25.4212 36.7001 25.2233 36.4149 24.9594 36.1731C24.7022 35.9252 24.4393 35.8153 24.0568 35.679C23.6742 35.5426 22.153 35.4751 21.6517 35.4751V40.8733Z" fill="black"/>
<path d="M4.9646 42.5984C4.14705 42.5984 3.39839 42.4021 2.71863 42.0093C2.04806 41.6166 1.51527 41.0915 1.12027 40.4339C0.725275 39.7672 0.527778 39.0366 0.527778 38.242C0.527778 37.4383 0.725275 36.7077 1.12027 36.0501C1.51527 35.3925 2.04806 34.8674 2.71863 34.4747C3.39839 34.0819 4.14705 33.8856 4.9646 33.8856C5.54332 33.8856 6.08988 33.9815 6.6043 34.1733C7.11871 34.3651 7.57342 34.6436 7.96841 35.0089L7.3897 37.283C7.16005 36.8903 6.84313 36.5524 6.43895 36.2693C6.03477 35.977 5.56628 35.8309 5.03349 35.8309C4.5742 35.8309 4.16083 35.9405 3.79339 36.1597C3.43514 36.3789 3.15037 36.6711 2.93909 37.0364C2.72782 37.3926 2.62218 37.7945 2.62218 38.242C2.62218 38.6804 2.72782 39.0822 2.93909 39.4476C3.15037 39.8129 3.43514 40.1051 3.79339 40.3243C4.16083 40.5435 4.5742 40.6531 5.03349 40.6531C5.56628 40.6531 6.03477 40.5115 6.43895 40.2284C6.84313 39.9362 7.16005 39.5937 7.3897 39.201L7.96841 41.4751C7.57342 41.8404 7.11871 42.1189 6.6043 42.3107C6.08988 42.5025 5.54332 42.5984 4.9646 42.5984Z" fill="black"/>
<path d="M13.7193 42.5984C12.9017 42.5984 12.153 42.4021 11.4733 42.0093C10.8027 41.6166 10.2699 41.0915 9.87492 40.4339C9.47993 39.7763 9.28243 39.0457 9.28243 38.242C9.28243 37.4383 9.47993 36.7077 9.87492 36.0501C10.2699 35.3925 10.8027 34.8674 11.4733 34.4747C12.153 34.0819 12.8971 33.8856 13.7055 33.8856C14.5322 33.8856 15.2809 34.0819 15.9514 34.4747C16.622 34.8674 17.1548 35.3925 17.5498 36.0501C17.954 36.6985 18.1561 37.4292 18.1561 38.242C18.1561 39.0366 17.954 39.7672 17.5498 40.4339C17.1548 41.0915 16.622 41.6166 15.9514 42.0093C15.2809 42.4021 14.5368 42.5984 13.7193 42.5984ZM13.7055 40.6531C14.1556 40.6531 14.5598 40.5435 14.918 40.3243C15.2763 40.1051 15.561 39.8129 15.7723 39.4476C15.9836 39.0822 16.0892 38.6804 16.0892 38.242C16.0892 37.7945 15.9836 37.3926 15.7723 37.0364C15.561 36.6711 15.2763 36.3789 14.918 36.1597C14.5598 35.9405 14.1556 35.8309 13.7055 35.8309C13.2645 35.8309 12.865 35.9405 12.5067 36.1597C12.1484 36.3789 11.8637 36.6711 11.6524 37.0364C11.4411 37.3926 11.3355 37.7945 11.3355 38.242C11.3355 38.6804 11.4411 39.0822 11.6524 39.4476C11.8637 39.8129 12.1484 40.1051 12.5067 40.3243C12.865 40.5435 13.2645 40.6531 13.7055 40.6531Z" fill="black"/>
<path d="M19.8045 42.5984V33.8856H22.8322C23.5446 33.8856 24.191 33.9941 24.7714 34.211C25.3585 34.428 25.8631 34.7287 26.2852 35.113C26.714 35.4912 27.0438 35.9345 27.2747 36.4428C27.5055 36.9512 27.621 37.7213 27.621 38.2979C27.621 38.8744 27.5055 39.4169 27.2747 39.9252C27.0438 40.4336 26.714 40.9736 26.2852 41.358C25.8631 41.7362 25.3585 42.056 24.7714 42.273C24.191 42.4899 23.5446 42.5984 22.8322 42.5984H19.8045ZM21.6517 40.8733C22.153 40.8733 23.6742 40.8966 24.0568 40.7602C24.4393 40.6176 24.7022 40.4366 24.9594 40.1949C25.2233 39.9469 25.4212 39.6617 25.5531 39.3394C25.6916 39.017 25.7577 38.614 25.7577 38.242C25.7577 37.87 25.6916 37.351 25.5531 37.0286C25.4212 36.7001 25.2233 36.4149 24.9594 36.1731C24.7022 35.9252 24.4393 35.8153 24.0568 35.679C23.6742 35.5426 22.153 35.4751 21.6517 35.4751V40.8733Z" fill="black"/>
<path d="M4.99787 54C4.18032 54 3.43166 53.8036 2.7519 53.4109C2.08132 53.0182 1.54854 52.4931 1.15354 51.8355C0.758543 51.1688 0.561046 50.4382 0.561046 49.6436C0.561046 48.8399 0.758543 48.1092 1.15354 47.4517C1.54854 46.7941 2.08132 46.269 2.7519 45.8762C3.43166 45.4835 4.18032 45.2872 4.99787 45.2872C5.57658 45.2872 6.12314 45.3831 6.63756 45.5748C7.15197 45.7666 7.60668 46.0452 8.00167 46.4105L7.42296 48.6846C7.19331 48.2919 6.87639 47.954 6.47221 47.6709C6.06803 47.3786 5.59955 47.2325 5.06676 47.2325C4.60746 47.2325 4.19409 47.3421 3.82665 47.5613C3.4684 47.7805 3.18364 48.0727 2.97236 48.438C2.76108 48.7942 2.65545 49.1961 2.65545 49.6436C2.65545 50.082 2.76108 50.4838 2.97236 50.8491C3.18364 51.2144 3.4684 51.5067 3.82665 51.7259C4.19409 51.9451 4.60746 52.0547 5.06676 52.0547C5.59955 52.0547 6.06803 51.9131 6.47221 51.63C6.87639 51.3377 7.19331 50.9953 7.42296 50.6025L8.00167 52.8766C7.60668 53.242 7.15197 53.5205 6.63756 53.7123C6.12314 53.9041 5.57658 54 4.99787 54Z" fill="black"/>
<path d="M13.224 53.849C12.4707 53.849 11.7818 53.6572 11.1571 53.2736C10.5325 52.8809 10.0318 52.3603 9.65522 51.7119C9.28778 51.0543 9.10407 50.3328 9.10407 49.5474C9.10407 48.7619 9.28778 48.045 9.65522 47.3965C10.0318 46.739 10.5325 46.2184 11.1571 45.8348C11.7818 45.4421 12.4707 45.2457 13.224 45.2457C13.7659 45.2457 14.2666 45.3416 14.7259 45.5334C15.1852 45.7252 15.5756 45.9946 15.8971 46.3417V45.4375L17.9777 45.4238V53.6435L15.8971 53.6572V52.753C15.5756 53.0909 15.1852 53.3604 14.7259 53.5613C14.2666 53.7531 13.7659 53.849 13.224 53.849ZM13.4858 51.9448C13.9267 51.9448 14.3217 51.8352 14.6708 51.616C15.029 51.3968 15.3138 51.1091 15.5251 50.7529C15.7363 50.3876 15.842 49.9857 15.842 49.5474C15.842 49.109 15.7363 48.7117 15.5251 48.3555C15.3138 47.9902 15.029 47.6979 14.6708 47.4787C14.3217 47.2596 13.9313 47.15 13.4995 47.15C13.0586 47.15 12.659 47.2596 12.3008 47.4787C11.9517 47.6979 11.6715 47.9902 11.4603 48.3555C11.249 48.7117 11.1433 49.109 11.1433 49.5474C11.1433 49.9857 11.249 50.3876 11.4603 50.7529C11.6715 51.1091 11.9517 51.3968 12.3008 51.616C12.659 51.8352 13.054 51.9448 13.4858 51.9448Z" fill="black"/>
<path d="M24.0568 53.9819L19.6224 45.5337H22.0337L23.4253 48.4106C23.554 48.6572 23.6734 48.9038 23.7836 49.1504C23.8938 49.397 24.0041 49.6847 24.1143 50.0135C24.2245 49.6847 24.3348 49.397 24.445 49.1504C24.5552 48.9038 24.6746 48.6572 24.8032 48.4106L26.1949 45.5337H28.496L24.0568 53.9819Z" fill="black"/>
<path d="M30.3601 27.2473H38V20.555L23.6941 2.1511L15.3668 0V8.12638L30.3601 27.2473Z" fill="#5F20FE"/>
<path d="M22.7796 27.532L25.5685 24.0634L22.721 20.3781H14.7037L11.6235 23.8465L14.7037 27.532H22.7796Z" fill="#5F20FE"/>
<path d="M6.70588 27.2473H0V21.033L7.82353 11.9506L14.7529 10.5165V17.9258L6.70588 27.2473Z" fill="#5F20FE"/>
</svg>
