<svg width="285" height="405" viewBox="0 0 285 405" fill="none" xmlns="http://www.w3.org/2000/svg">
<path d="M37.2345 319.488C31.1029 319.488 25.488 318.015 20.3897 315.07C15.3604 312.125 11.3645 308.186 8.40204 303.254C5.43956 298.254 3.95833 292.774 3.95833 286.815C3.95833 280.787 5.43956 275.307 8.40204 270.376C11.3645 265.444 15.3604 261.505 20.3897 258.56C25.488 255.615 31.1029 254.142 37.2345 254.142C41.5749 254.142 45.6741 254.861 49.5322 256.299C53.3903 257.738 56.8006 259.827 59.7631 262.567L55.4227 279.623C53.7004 276.677 51.3235 274.143 48.2921 272.02C45.2607 269.828 41.7471 268.732 37.7512 268.732C34.3065 268.732 31.2062 269.554 28.4504 271.198C25.7635 272.842 23.6278 275.033 22.0432 277.773C20.4586 280.445 19.6663 283.459 19.6663 286.815C19.6663 290.103 20.4586 293.117 22.0432 295.857C23.6278 298.597 25.7635 300.788 28.4504 302.432C31.2062 304.076 34.3065 304.898 37.7512 304.898C41.7471 304.898 45.2607 303.837 48.2921 301.713C51.3235 299.521 53.7004 296.953 55.4227 294.007L59.7631 311.063C56.8006 313.803 53.3903 315.892 49.5322 317.331C45.6741 318.769 41.5749 319.488 37.2345 319.488Z" fill="white"/>
<path d="M102.894 319.488C96.7627 319.488 91.1478 318.015 86.0496 315.07C81.0203 312.125 77.0244 308.186 74.0619 303.254C71.0994 298.323 69.6182 292.843 69.6182 286.815C69.6182 280.787 71.0994 275.307 74.0619 270.376C77.0244 265.444 81.0203 261.505 86.0496 258.56C91.1478 255.615 96.7283 254.142 102.791 254.142C108.992 254.142 114.607 255.615 119.636 258.56C124.665 261.505 128.661 265.444 131.624 270.376C134.655 275.239 136.171 280.719 136.171 286.815C136.171 292.774 134.655 298.254 131.624 303.254C128.661 308.186 124.665 312.125 119.636 315.07C114.607 318.015 109.026 319.488 102.894 319.488ZM102.791 304.898C106.167 304.898 109.198 304.076 111.885 302.432C114.572 300.788 116.708 298.597 118.292 295.857C119.877 293.117 120.669 290.103 120.669 286.815C120.669 283.459 119.877 280.445 118.292 277.773C116.708 275.033 114.572 272.842 111.885 271.198C109.198 269.554 106.167 268.732 102.791 268.732C99.4841 268.732 96.4872 269.554 93.8003 271.198C91.1134 272.842 88.9776 275.033 87.393 277.773C85.8084 280.445 85.0162 283.459 85.0162 286.815C85.0162 290.103 85.8084 293.117 87.393 295.857C88.9776 298.597 91.1134 300.788 93.8003 302.432C96.4872 304.076 99.4841 304.898 102.791 304.898Z" fill="white"/>
<path d="M252.045 319.488C245.225 319.488 239.162 318.05 233.857 315.173C228.621 312.296 224.522 308.357 221.559 303.357C218.666 298.288 217.219 292.569 217.219 286.199C217.219 280.102 218.631 274.657 221.456 269.862C224.35 264.999 228.242 261.163 233.134 258.354C238.025 255.546 243.433 254.142 249.358 254.142C255.421 254.142 260.829 255.546 265.583 258.354C270.406 261.094 274.229 264.827 277.054 269.554C279.879 274.28 281.291 279.657 281.291 285.685V290.738H242.745C241.022 290.738 239.449 290.738 237.194 290.738C234.939 290.738 234.939 290.738 232.685 290.738C233.511 295.19 235.717 298.631 239.231 301.508C242.745 304.385 247.154 305.823 252.459 305.823C256.386 305.823 259.934 305.001 263.103 303.357C266.272 301.713 268.89 299.658 270.957 297.192L274.677 312.296C271.577 314.693 268.098 316.474 264.24 317.639C260.382 318.872 256.317 319.488 252.045 319.488ZM232.32 280.548C235.992 280.548 239.132 280.548 242.577 280.548H255.908C257.768 280.548 259.882 280.548 261.483 280.548C263.194 280.548 264.674 280.548 266.136 280.548C265.102 276.575 263.034 273.184 260.003 270.787C257.04 268.389 253.458 267.191 249.255 267.191C245.121 267.191 241.539 268.423 238.508 270.889C235.476 273.355 233.422 276.575 232.32 280.548Z" fill="white"/>
<path d="M37.484 405C31.3524 405 25.7375 403.527 20.6393 400.582C15.6099 397.637 11.614 393.698 8.65155 388.766C5.68907 383.766 4.20784 378.286 4.20784 372.327C4.20784 366.299 5.68907 360.819 8.65155 355.888C11.614 350.956 15.6099 347.017 20.6393 344.072C25.7375 341.126 31.3524 339.654 37.484 339.654C41.8244 339.654 45.9236 340.373 49.7817 341.811C53.6398 343.25 57.0501 345.339 60.0125 348.079L55.6722 365.135C53.9498 362.189 51.573 359.655 48.5416 357.531C45.5102 355.34 41.9966 354.244 38.0007 354.244C34.556 354.244 31.4557 355.066 28.6999 356.709C26.013 358.353 23.8773 360.545 22.2927 363.285C20.7081 365.957 19.9158 368.971 19.9158 372.327C19.9158 375.615 20.7081 378.629 22.2927 381.368C23.8773 384.108 26.013 386.3 28.6999 387.944C31.4557 389.588 34.556 390.41 38.0007 390.41C41.9966 390.41 45.5102 389.348 48.5416 387.225C51.573 385.033 53.9498 382.464 55.6722 379.519L60.0125 396.575C57.0501 399.315 53.6398 401.404 49.7817 402.842C45.9236 404.281 41.8244 405 37.484 405Z" fill="white"/>
<path d="M99.1798 403.867C93.5304 403.867 88.3633 402.429 83.6784 399.552C78.9936 396.607 75.2388 392.702 72.4141 387.839C69.6583 382.907 68.2805 377.496 68.2805 371.605C68.2805 365.714 69.6583 360.337 72.4141 355.474C75.2388 350.542 78.9936 346.638 83.6784 343.761C88.3633 340.816 93.5304 339.343 99.1798 339.343C103.245 339.343 106.999 340.062 110.444 341.501C113.889 342.939 116.817 344.96 119.228 347.563V340.781L134.833 340.679V402.326L119.228 402.429V395.648C116.817 398.182 113.889 400.203 110.444 401.71C106.999 403.148 103.245 403.867 99.1798 403.867ZM101.143 389.586C104.45 389.586 107.413 388.764 110.031 387.12C112.718 385.476 114.853 383.318 116.438 380.647C118.022 377.907 118.815 374.893 118.815 371.605C118.815 368.317 118.022 365.338 116.438 362.666C114.853 359.926 112.718 357.735 110.031 356.091C107.413 354.447 104.485 353.625 101.247 353.625C97.9396 353.625 94.9427 354.447 92.2558 356.091C89.6378 357.735 87.5366 359.926 85.952 362.666C84.3674 365.338 83.5751 368.317 83.5751 371.605C83.5751 374.893 84.3674 377.907 85.952 380.647C87.5366 383.318 89.6378 385.476 92.2558 387.12C94.9427 388.764 97.9052 389.586 101.143 389.586Z" fill="white"/>
<path d="M180.426 404.864L147.168 341.503H165.253L175.69 363.08C176.655 364.929 177.55 366.779 178.377 368.628C179.204 370.477 180.03 372.635 180.857 375.101C181.684 372.635 182.511 370.477 183.337 368.628C184.164 366.779 185.06 364.929 186.024 363.08L196.462 341.503H213.72L180.426 404.864Z" fill="white"/>
<path d="M252.045 319.488C245.225 319.488 239.162 318.05 233.857 315.173C228.621 312.296 224.522 308.357 221.559 303.357C218.666 298.288 217.219 292.569 217.219 286.199C217.219 280.102 218.631 274.657 221.456 269.862C224.35 264.999 228.242 261.163 233.134 258.354C238.025 255.546 243.433 254.142 249.358 254.142C255.421 254.142 260.829 255.546 265.583 258.354C270.406 261.094 274.229 264.827 277.054 269.554C279.879 274.28 281.291 279.657 281.291 285.685V290.738H242.745C241.022 290.738 239.449 290.738 237.194 290.738C234.939 290.738 234.939 290.738 232.685 290.738C233.511 295.19 235.717 298.631 239.231 301.508C242.745 304.385 247.154 305.823 252.459 305.823C256.386 305.823 259.934 305.001 263.103 303.357C266.272 301.713 268.89 299.658 270.957 297.192L274.677 312.296C271.577 314.693 268.098 316.474 264.24 317.639C260.382 318.872 256.317 319.488 252.045 319.488ZM232.32 280.548C235.992 280.548 239.132 280.548 242.577 280.548H255.908C257.768 280.548 259.882 280.548 261.483 280.548C263.194 280.548 264.674 280.548 266.136 280.548C265.102 276.575 263.034 273.184 260.003 270.787C257.04 268.389 253.458 267.191 249.255 267.191C245.121 267.191 241.539 268.423 238.508 270.889C235.476 273.355 233.422 276.575 232.32 280.548Z" fill="white"/>
<path d="M252.045 404.864C245.225 404.864 239.162 403.426 233.857 400.549C228.621 397.672 224.522 393.733 221.559 388.733C218.666 383.664 217.219 377.945 217.219 371.574C217.219 365.478 218.631 360.033 221.456 355.238C224.35 350.374 228.242 346.539 233.134 343.73C238.025 340.922 243.433 339.518 249.358 339.518C255.421 339.518 260.829 340.922 265.583 343.73C270.406 346.47 274.229 350.203 277.054 354.929C279.879 359.656 281.291 365.033 281.291 371.061V376.114H242.745C241.022 376.114 239.449 376.114 237.194 376.114C234.939 376.114 234.939 376.114 232.684 376.114C233.511 380.566 235.717 384.007 239.231 386.883C242.744 389.76 247.154 391.199 252.459 391.199C256.386 391.199 259.934 390.377 263.103 388.733C266.272 387.089 268.89 385.034 270.957 382.568L274.677 397.672C271.577 400.069 268.098 401.85 264.24 403.015C260.382 404.247 256.317 404.864 252.045 404.864ZM232.32 365.923C235.992 365.923 239.132 365.923 242.577 365.923H255.908C257.768 365.923 259.882 365.923 261.483 365.923C263.194 365.923 264.674 365.923 266.136 365.923C265.102 361.95 263.034 358.56 260.003 356.162C257.04 353.765 253.458 352.566 249.255 352.566C245.121 352.566 241.539 353.799 238.507 356.265C235.476 358.731 233.422 361.95 232.32 365.923Z" fill="white"/>
<path d="M252.045 404.864C245.225 404.864 239.162 403.426 233.857 400.549C228.621 397.672 224.522 393.733 221.559 388.733C218.666 383.664 217.219 377.945 217.219 371.574C217.219 365.478 218.631 360.033 221.456 355.238C224.35 350.374 228.242 346.539 233.134 343.73C238.025 340.922 243.433 339.518 249.358 339.518C255.421 339.518 260.829 340.922 265.583 343.73C270.406 346.47 274.229 350.203 277.054 354.929C279.879 359.656 281.291 365.033 281.291 371.061V376.114H242.745C241.022 376.114 239.449 376.114 237.194 376.114C234.939 376.114 234.939 376.114 232.684 376.114C233.511 380.566 235.717 384.007 239.231 386.883C242.744 389.76 247.154 391.199 252.459 391.199C256.386 391.199 259.934 390.377 263.103 388.733C266.272 387.089 268.89 385.034 270.957 382.568L274.677 397.672C271.577 400.069 268.098 401.85 264.24 403.015C260.382 404.247 256.317 404.864 252.045 404.864ZM232.32 365.923C235.992 365.923 239.132 365.923 242.577 365.923H255.908C257.768 365.923 259.882 365.923 261.483 365.923C263.194 365.923 264.674 365.923 266.136 365.923C265.102 361.95 263.034 358.56 260.003 356.162C257.04 353.765 253.458 352.566 249.255 352.566C245.121 352.566 241.539 353.799 238.507 356.265C235.476 358.731 233.422 361.95 232.32 365.923Z" fill="white"/>
<path d="M148.534 319.488V254.142H171.241C176.584 254.142 181.432 254.955 185.786 256.583C190.189 258.21 193.973 260.465 197.139 263.348C200.355 266.184 202.829 269.508 204.56 273.321C206.292 277.134 207.157 282.91 207.157 287.234C207.157 291.558 206.292 295.626 204.56 299.439C202.829 303.252 200.355 307.302 197.139 310.185C193.973 313.021 190.189 315.42 185.786 317.047C181.432 318.675 176.584 319.488 171.241 319.488H148.534ZM162.388 306.55C166.148 306.55 177.556 306.724 180.426 305.702C183.295 304.632 185.266 303.275 187.196 301.462C189.175 299.602 190.659 297.463 191.648 295.045C192.687 292.628 193.182 289.605 193.182 286.815C193.182 284.025 192.687 280.133 191.648 277.715C190.659 275.251 189.175 273.112 187.196 271.299C185.266 269.439 183.295 268.615 180.426 267.592C177.556 266.569 166.148 266.063 162.388 266.063V306.55Z" fill="white"/>
<path d="M37.2345 319.488C31.1029 319.488 25.488 318.015 20.3897 315.07C15.3604 312.125 11.3645 308.186 8.40204 303.254C5.43956 298.254 3.95833 292.774 3.95833 286.815C3.95833 280.787 5.43956 275.307 8.40204 270.376C11.3645 265.444 15.3604 261.505 20.3897 258.56C25.488 255.615 31.1029 254.142 37.2345 254.142C41.5749 254.142 45.6741 254.861 49.5322 256.299C53.3903 257.738 56.8006 259.827 59.7631 262.567L55.4227 279.623C53.7004 276.677 51.3235 274.143 48.2921 272.02C45.2607 269.828 41.7471 268.732 37.7512 268.732C34.3065 268.732 31.2062 269.554 28.4504 271.198C25.7635 272.842 23.6278 275.033 22.0432 277.773C20.4586 280.445 19.6663 283.459 19.6663 286.815C19.6663 290.103 20.4586 293.117 22.0432 295.857C23.6278 298.597 25.7635 300.788 28.4504 302.432C31.2062 304.076 34.3065 304.898 37.7512 304.898C41.7471 304.898 45.2607 303.837 48.2921 301.713C51.3235 299.521 53.7004 296.953 55.4227 294.007L59.7631 311.063C56.8006 313.803 53.3903 315.892 49.5322 317.331C45.6741 318.769 41.5749 319.488 37.2345 319.488Z" fill="white"/>
<path d="M102.894 319.488C96.7627 319.488 91.1478 318.015 86.0496 315.07C81.0203 312.125 77.0244 308.186 74.0619 303.254C71.0994 298.323 69.6182 292.843 69.6182 286.815C69.6182 280.787 71.0994 275.307 74.0619 270.376C77.0244 265.444 81.0203 261.505 86.0496 258.56C91.1478 255.615 96.7283 254.142 102.791 254.142C108.992 254.142 114.607 255.615 119.636 258.56C124.665 261.505 128.661 265.444 131.624 270.376C134.655 275.239 136.171 280.719 136.171 286.815C136.171 292.774 134.655 298.254 131.624 303.254C128.661 308.186 124.665 312.125 119.636 315.07C114.607 318.015 109.026 319.488 102.894 319.488ZM102.791 304.898C106.167 304.898 109.198 304.076 111.885 302.432C114.572 300.788 116.708 298.597 118.292 295.857C119.877 293.117 120.669 290.103 120.669 286.815C120.669 283.459 119.877 280.445 118.292 277.773C116.708 275.033 114.572 272.842 111.885 271.198C109.198 269.554 106.167 268.732 102.791 268.732C99.4841 268.732 96.4872 269.554 93.8003 271.198C91.1134 272.842 88.9776 275.033 87.393 277.773C85.8084 280.445 85.0162 283.459 85.0162 286.815C85.0162 290.103 85.8084 293.117 87.393 295.857C88.9776 298.597 91.1134 300.788 93.8003 302.432C96.4872 304.076 99.4841 304.898 102.791 304.898Z" fill="white"/>
<path d="M148.534 319.488V254.142H171.241C176.584 254.142 181.432 254.955 185.786 256.583C190.189 258.21 193.973 260.465 197.139 263.348C200.355 266.184 202.829 269.508 204.56 273.321C206.292 277.134 207.157 282.91 207.157 287.234C207.157 291.558 206.292 295.626 204.56 299.439C202.829 303.252 200.355 307.302 197.139 310.185C193.973 313.021 190.189 315.42 185.786 317.047C181.432 318.675 176.584 319.488 171.241 319.488H148.534ZM162.388 306.55C166.148 306.55 177.556 306.724 180.426 305.702C183.295 304.632 185.266 303.275 187.196 301.462C189.175 299.602 190.659 297.463 191.648 295.045C192.687 292.628 193.182 289.605 193.182 286.815C193.182 284.025 192.687 280.133 191.648 277.715C190.659 275.251 189.175 273.112 187.196 271.299C185.266 269.439 183.295 268.615 180.426 267.592C177.556 266.569 166.148 266.063 162.388 266.063V306.55Z" fill="white"/>
<path d="M37.484 405C31.3524 405 25.7375 403.527 20.6393 400.582C15.6099 397.637 11.614 393.698 8.65155 388.766C5.68907 383.766 4.20784 378.286 4.20784 372.327C4.20784 366.299 5.68907 360.819 8.65155 355.888C11.614 350.956 15.6099 347.017 20.6393 344.072C25.7375 341.126 31.3524 339.654 37.484 339.654C41.8244 339.654 45.9236 340.373 49.7817 341.811C53.6398 343.25 57.0501 345.339 60.0125 348.079L55.6722 365.135C53.9498 362.189 51.573 359.655 48.5416 357.531C45.5102 355.34 41.9966 354.244 38.0007 354.244C34.556 354.244 31.4557 355.066 28.6999 356.709C26.013 358.353 23.8773 360.545 22.2927 363.285C20.7081 365.957 19.9158 368.971 19.9158 372.327C19.9158 375.615 20.7081 378.629 22.2927 381.368C23.8773 384.108 26.013 386.3 28.6999 387.944C31.4557 389.588 34.556 390.41 38.0007 390.41C41.9966 390.41 45.5102 389.348 48.5416 387.225C51.573 385.033 53.9498 382.464 55.6722 379.519L60.0125 396.575C57.0501 399.315 53.6398 401.404 49.7817 402.842C45.9236 404.281 41.8244 405 37.484 405Z" fill="white"/>
<path d="M99.1798 403.867C93.5304 403.867 88.3633 402.429 83.6784 399.552C78.9936 396.607 75.2388 392.702 72.4141 387.839C69.6583 382.907 68.2805 377.496 68.2805 371.605C68.2805 365.714 69.6583 360.337 72.4141 355.474C75.2388 350.542 78.9936 346.638 83.6784 343.761C88.3633 340.816 93.5304 339.343 99.1798 339.343C103.245 339.343 106.999 340.062 110.444 341.501C113.889 342.939 116.817 344.96 119.228 347.563V340.781L134.833 340.679V402.326L119.228 402.429V395.648C116.817 398.182 113.889 400.203 110.444 401.71C106.999 403.148 103.245 403.867 99.1798 403.867ZM101.143 389.586C104.45 389.586 107.413 388.764 110.031 387.12C112.718 385.476 114.853 383.318 116.438 380.647C118.022 377.907 118.815 374.893 118.815 371.605C118.815 368.317 118.022 365.338 116.438 362.666C114.853 359.926 112.718 357.735 110.031 356.091C107.413 354.447 104.485 353.625 101.247 353.625C97.9396 353.625 94.9427 354.447 92.2558 356.091C89.6378 357.735 87.5366 359.926 85.952 362.666C84.3674 365.338 83.5751 368.317 83.5751 371.605C83.5751 374.893 84.3674 377.907 85.952 380.647C87.5366 383.318 89.6378 385.476 92.2558 387.12C94.9427 388.764 97.9052 389.586 101.143 389.586Z" fill="white"/>
<path d="M180.426 404.864L147.168 341.503H165.253L175.69 363.08C176.655 364.929 177.55 366.779 178.377 368.628C179.204 370.477 180.03 372.635 180.857 375.101C181.684 372.635 182.511 370.477 183.337 368.628C184.164 366.779 185.06 364.929 186.024 363.08L196.462 341.503H213.72L180.426 404.864Z" fill="white"/>
<path d="M227.701 204.355H285V154.162L177.706 16.1333L115.251 0V60.9479L227.701 204.355Z" fill="white"/>
<path d="M170.847 206.49L191.764 180.476L170.407 152.835H110.278L87.1766 178.849L110.278 206.49H170.847Z" fill="white"/>
<path d="M50.2941 204.355H0V157.747L58.6765 89.6292L110.647 78.8737V134.444L50.2941 204.355Z" fill="white"/>
</svg>
